<?xml version="1.0" encoding="UTF-8" standalone="no"?>
<svg
   version="1.1"
   width="72.230469"
   height="84.240509"
   id="svg7"
   sodipodi:docname="book.svg"
   xml:space="preserve"
   xmlns:inkscape="http://www.inkscape.org/namespaces/inkscape"
   xmlns:sodipodi="http://sodipodi.sourceforge.net/DTD/sodipodi-0.dtd"
   xmlns:xlink="http://www.w3.org/1999/xlink"
   xmlns="http://www.w3.org/2000/svg"
   xmlns:svg="http://www.w3.org/2000/svg"><defs
     id="defs7" /><sodipodi:namedview
     id="namedview7"
     pagecolor="#ffffff"
     bordercolor="#000000"
     borderopacity="0.25"
     inkscape:showpageshadow="2"
     inkscape:pageopacity="0.0"
     inkscape:pagecheckerboard="0"
     inkscape:deskcolor="#d1d1d1"
     showguides="true"><inkscape:page
       x="0"
       y="0"
       width="72.230469"
       height="84.240509"
       id="page2"
       margin="0"
       bleed="0" /></sodipodi:namedview><path
     d="M 4.0461578,1.6601563e-8 C 5.3052446,0.00222063 6.5643313,0.00444124 7.8615722,0.00672915 c 0.7038857,-1.2054e-4 1.4077715,-2.4107e-4 2.1329871,-3.6526e-4 2.2883037,7.4898e-4 4.5765267,0.00837648 6.8648157,0.0162344 1.408813,0.0014695 2.817627,0.0024901 4.226441,0.0030517 5.235726,0.0052523 10.47144,0.01921343 15.707153,0.0321045 17.541562,0.0309375 17.541562,0.0309375 35.4375,0.0625 0,27.72000051 0,55.44000051 0,84.00000051 -11.694375,0.02062 -23.38875,0.04125 -35.4375,0.0625 -3.697595,0.0091 -7.395191,0.01821 -11.204834,0.02759 -4.502319,0.0045 -4.502319,0.0045 -6.607559,0.0054 -1.475793,0.0015 -2.951584,0.0051 -4.427368,0.01013 -2.230568,0.0073 -4.461058,0.0083 -6.6916358,0.0079 -1.8886301,0.0033 -1.8886301,0.0033 -3.8154144,0.0067 -2.8156891,-0.120254 -2.8156891,-0.120254 -3.81568915,-1.120254 -0.1003773,-2.550515 -0.1361749,-5.073972 -0.1293945,-7.625 -0.00175,-0.798333 -0.0035,-1.596666 -0.00531,-2.41919 -0.00442,-2.651959 -0.00148,-5.303851 0.00189,-7.95581 -6.73e-4,-1.834636 -0.00164,-3.669271 -0.0029,-5.503907 -0.00148,-3.850269 6.779e-4,-7.700515 0.00534,-11.550781 0.0057,-4.946877 0.00242,-9.893701 -0.00357,-14.840576 -0.00361,-3.789962 -0.00247,-7.579911 1.278e-4,-11.369873 6.693e-4,-1.824545 -1.594e-4,-3.64909 -0.00248,-5.473633 -0.00253,-2.545442 0.00131,-5.090795 0.0069,-7.6362305 C 0.09803775,7.6028632 0.09803775,7.6028632 0.09494015,6.4373932 0.12056675,0.16765704 0.12056675,0.16765704 4.0461578,1.6601563e-8 Z"
     fill="#f35d4b"
     id="path1"
     sodipodi:insensitive="true" /><path
     d="m 1.2304687,0.12025452 c 3.63,0 7.2600001,0 11.0000003,0 0,22.44000048 0,44.88000048 0,68.00000048 19.8,-0.33 39.6,-0.66 60,-1 0,5.61 0,11.22 0,17 -9.239979,0.02255 -18.479939,0.04092 -27.719939,0.05181 -4.29006,0.0052 -8.5801,0.01233 -12.870149,0.02363 -4.136706,0.01083 -8.273393,0.01684 -12.410112,0.01944 -1.581723,0.0019 -3.163445,0.0055 -4.745159,0.01085 -2.207869,0.0072 -4.415659,0.0083 -6.6235377,0.0078 -1.8886301,0.0033 -1.8886301,0.0033 -3.8154144,0.0067 -2.8156892,-0.12023 -2.8156892,-0.12023 -3.81568915,-1.12023 -0.1003773,-2.550515 -0.1361749,-5.073972 -0.1293945,-7.625 -0.00175,-0.798333 -0.0035,-1.596665 -0.00531,-2.419189 -0.00442,-2.651959 -0.00148,-5.303852 0.00189,-7.955811 -6.73e-4,-1.834636 -0.00164,-3.669271 -0.0029,-5.503906 -0.00148,-3.850269 6.778e-4,-7.700515 0.00534,-11.550782 0.0057,-4.946877 0.00242,-9.8937 -0.00357,-14.840576 -0.00361,-3.789962 -0.00247,-7.57991 1.278e-4,-11.369873 6.694e-4,-1.824544 -1.593e-4,-3.64909 -0.00248,-5.473633 -0.00253,-2.545442 0.00131,-5.090795 0.0069,-7.6362305 -0.00304,-1.1423914 -0.00304,-1.1423914 -0.00613,-2.3078613 0.0212641,-5.2028761 0.0212641,-5.2028761 1.13552665,-6.31713868 z"
     fill="#e13632"
     id="path2" /><path
     d="m 7.8183747,70 c 1.1524975,0.0022 2.3049953,0.0044 3.4924163,0.0067 1.95191,1.13e-4 1.95191,1.13e-4 3.943253,2.29e-4 1.430944,0.0051 2.861888,0.01032 4.292831,0.01564 1.455887,0.0019 2.911774,0.0033 4.367661,0.0043 3.838727,0.0038 7.677416,0.01365 11.516128,0.0247 3.914383,0.01021 7.828772,0.01479 11.743164,0.01984 7.685567,0.01074 15.371094,0.02833 23.056641,0.04883 0,3.96 0,7.92 0,12 -8.457677,0.02255 -16.915331,0.04092 -25.373031,0.05181 -3.926855,0.0052 -7.85369,0.01232 -11.780533,0.02363 -3.786578,0.01083 -7.573136,0.01684 -11.359728,0.01944 -1.447751,0.0019 -2.895501,0.0055 -4.343243,0.01085 -2.021036,0.0072 -4.042094,0.0077 -6.063143,0.0078 -1.7287459,0.0033 -1.7287459,0.0033 -3.4924162,0.0067 C 5.2304689,82.12023 5.2304689,82.12023 4.2304689,81.12023 c -0.098239,-1.664291 -0.1297363,-3.332819 -0.125,-5 -0.00258,-0.9075 -0.00516,-1.815 -0.00781,-2.75 C 4.2890088,70.128519 4.5511493,70.151821 7.8183747,70 Z"
     fill="#dddbcd"
     id="path3" /><path
     d="m 7.2304687,1.1202545 c 0.33,0 0.66,0 1.0000001,0 0.33,22.1100005 0.66,44.2200005 1,67.0000005 20.7900002,-0.33 41.5800002,-0.66 63.0000002,-1 0,5.61 0,11.22 0,17 -9.239979,0.02255 -18.479939,0.04092 -27.719939,0.05181 -4.29006,0.0052 -8.5801,0.01233 -12.870149,0.02363 -4.136706,0.01083 -8.273393,0.01684 -12.410112,0.01944 -1.581723,0.0019 -3.163445,0.0055 -4.74516,0.01085 -2.207869,0.0072 -4.415658,0.0083 -6.6235367,0.0078 -1.8886301,0.0033 -1.8886301,0.0033 -3.8154144,0.0067 -2.8156892,-0.12023 -2.8156892,-0.12023 -3.81568915,-1.12023 -0.1253774,-2.143079 -0.1757436,-4.290789 -0.1875,-6.4375 C 0.02878905,75.508419 0.01460935,74.334083 5e-8,73.124161 c 0.2304687,-3.003906 0.2304687,-3.003906 2.23046875,-5.003906 1.65,0 3.2999999,0 4.9999999,0 0,-22.11 0,-44.22 0,-67.0000005 z m -3,70.0000005 c -0.072055,1.68609 -0.083861,3.375007 -0.0625,5.0625 0.00902,0.919102 0.018047,1.838203 0.027344,2.785156 0.011601,0.710274 0.023203,1.420547 0.035156,2.152344 3.4305791,1.04644 6.5687683,1.120795 10.1455083,1.113525 1.240984,-7.5e-5 2.481969,-1.51e-4 3.760559,-2.28e-4 1.34902,-0.0051 2.698039,-0.01032 4.047058,-0.01564 1.384338,-0.0019 2.768676,-0.0033 4.153015,-0.0043 3.636473,-0.0038 7.272906,-0.01363 10.909363,-0.0247 3.713577,-0.01025 7.42716,-0.0148 11.140747,-0.01984 7.28127,-0.0107 14.562499,-0.02829 21.84375,-0.04882 0,-3.96 0,-7.92 0,-12 -8.457677,-0.02255 -16.915331,-0.04092 -25.373031,-0.05181 -3.926856,-0.0052 -7.85369,-0.01233 -11.780533,-0.02363 -3.786579,-0.01083 -7.573136,-0.01684 -11.359728,-0.01944 -1.447751,-0.0019 -2.895501,-0.0055 -4.343243,-0.01085 -2.021037,-0.0072 -4.042094,-0.0077 -6.063143,-0.0078 -1.152497,-0.0022 -2.3049948,-0.0044 -3.4924164,-0.0067 -2.5180374,-0.174146 -2.5180374,-0.174146 -3.5879059,1.12023 z"
     fill="#da3431"
     id="path4" /><path
     d="m 7.8183747,70 c 1.1524975,0.0022 2.3049953,0.0044 3.4924163,0.0067 1.95191,1.13e-4 1.95191,1.13e-4 3.943253,2.29e-4 1.430944,0.0051 2.861888,0.01032 4.292831,0.01564 1.455887,0.0019 2.911774,0.0033 4.367661,0.0043 3.838727,0.0038 7.677416,0.01365 11.516128,0.0247 3.914383,0.01021 7.828772,0.01479 11.743164,0.01984 7.685565,0.01074 15.371098,0.02781 23.056641,0.04883 -0.33,1.32 -0.66,2.64 -1,4 0,-0.66 0,-1.32 0,-2 -20.13,0 -40.26,0 -61.0000001,0 0,2.31 0,4.62 0,7 30.1950001,0.495 30.1950001,0.495 61.0000001,1 0.33,-0.66 0.66,-1.32 1,-2 0,1.32 0,2.64 0,4 -8.457673,0.02313 -16.915333,0.04092 -25.373031,0.05181 -3.926855,0.0052 -7.85369,0.01232 -11.780533,0.02363 -3.786578,0.01083 -7.573136,0.01684 -11.359728,0.01944 -1.447751,0.0019 -2.895501,0.0055 -4.343243,0.01085 -2.021036,0.0072 -4.042094,0.0077 -6.063143,0.0078 -1.7287459,0.0033 -1.7287459,0.0033 -3.4924162,0.0067 C 5.2304689,82.12023 5.2304689,82.12023 4.2304689,81.12023 c -0.098239,-1.664291 -0.1297363,-3.332819 -0.125,-5 -0.00258,-0.9075 -0.00516,-1.815 -0.00781,-2.75 C 4.2890088,70.128519 4.5511493,70.151821 7.8183747,70 Z"
     fill="#c4c1b4"
     id="path5" /><path
     d="m 7.2304687,1.1202545 c 0.33,0 0.66,0 1.0000001,0 0.33,22.1100005 0.66,44.2200005 1,67.0000005 0.9900002,0 1.9800002,0 3.0000002,0 0,0.66 0,1.32 0,2 -3.4650002,0.495 -3.4650002,0.495 -7.0000003,1 0,3.3 0,6.6 0,10 2.3100001,0.33 4.6200001,0.66 7.0000003,1 0,0.66 0,1.32 0,2 -1.812421,0.02687 -3.6249525,0.04634 -5.4375003,0.0625 -1.0093359,0.0116 -2.0186719,0.0232 -3.0585937,0.03516 -2.5039063,-0.09766 -2.5039063,-0.09766 -3.50390625,-1.09766 -0.1253774,-2.143079 -0.1757436,-4.290789 -0.1875,-6.4375 C 0.02878905,75.508419 0.01460935,74.334083 5e-8,73.124161 c 0.2304687,-3.003906 0.2304687,-3.003906 2.23046875,-5.003906 1.65,0 3.2999999,0 4.9999999,0 0,-22.11 0,-44.22 0,-67.0000005 z"
     fill="#b12323"
     id="path6" /><path
     d="m 5.2304687,70.120255 c 0.33,0 0.66,0 1,0 0,3.3 0,6.6 0,10 0.66,0.33 1.32,0.66 2.0000001,1 -1.3200001,0 -2.6400001,0 -4.0000001,0 -0.026882,-1.645746 -0.046341,-3.291615 -0.0625,-4.9375 -0.011602,-0.916524 -0.023203,-1.833047 -0.035156,-2.777344 0.097656,-2.285156 0.097656,-2.285156 1.097656,-3.285156 z"
     fill="#bbb4a7"
     id="path7"
     style="display:inline" /><g
     id="g7"
     transform="matrix(0.0766398,0,0,-0.0766398,40.587194,34.757682)"><rect
       style="display:none;fill:none;stroke:#ffffff;stroke-width:19.4737;stroke-dasharray:none"
       id="rect1"
       width="708.81927"
       height="708.81927"
       x="-354.40964"
       y="-354.40964"
       rx="400"
       inkscape:label="rect1" /><rect
       style="display:none;fill:#ffffff;fill-opacity:1;stroke:#ffffff;stroke-width:0;stroke-dasharray:none"
       id="rect2"
       width="740"
       height="740"
       x="-370"
       y="-370"
       rx="200" /><path
       style="display:inline;fill:#ffb300;fill-opacity:1;stroke:#fefefe;stroke-width:40.5729;stroke-linejoin:bevel;stroke-miterlimit:4;stroke-dasharray:none;stroke-opacity:1"
       d="m -153.92501,296.11515 c 103.57856,-75.91868 204.27146,-75.91868 307.85002,0 -192.324937,-199.043659 -192.324937,-393.186641 0,-592.2303 -103.57856,75.91868 -204.27146,75.91868 -307.85002,0 192.324937,199.043659 192.324937,393.186641 0,592.2303 z"
       id="Main" /><use
       xlink:href="#Main"
       transform="rotate(90)"
       id="use1"
       style="display:inline;fill:#ffb300;fill-opacity:1;stroke:#fefefe;stroke-width:1.95765;stroke-dasharray:none;stroke-opacity:1" /></g></svg>
