<?xml version="1.0" encoding="UTF-8" standalone="no"?>
<svg
   width="766.52454"
   height="765.4245"
   viewBox="-370 -370 766.52454 765.4245"
   version="1.1"
   id="svg1"
   xmlns="http://www.w3.org/2000/svg"
   xmlns:svg="http://www.w3.org/2000/svg"
   xmlns:bx="https://boxy-svg.com">
  <defs
     id="defs1">
    <bx:guide
       x="2.192"
       y="154.351"
       angle="0" />
    <bx:guide
       x="73.416"
       y="0.579"
       angle="90" />
    <bx:export>
      <bx:file
         format="svg" />
    </bx:export>
  </defs>
  <rect
     style="fill:#2e2e2e;fill-opacity:1;stroke:#f7b239;stroke-width:31.6545;stroke-linecap:butt;stroke-linejoin:miter;stroke-miterlimit:4;stroke-dasharray:none"
     id="rect2"
     width="734.87006"
     height="733.77002"
     x="-354.17276"
     y="-354.17276"
     rx="500" />
  <path
     style="fill-opacity:0;stroke:#f7b239;stroke-width:19.8323;stroke-linejoin:bevel;stroke-miterlimit:4;stroke-opacity:1"
     d="m -115.87825,259.54095 c 86.745699,-63.57661 171.068553,-63.57661 257.80847,0 -161.058196,-166.684788 -161.058196,-329.26511 0,-495.94412 -86.739917,63.57909 -171.062771,63.57909 -257.80847,0 161.063978,166.67901 161.063978,329.259332 0,495.94412 z"
     id="Main" />
  <path
     style="fill-opacity:0;stroke:#f7b239;stroke-width:19.8323;stroke-linejoin:bevel;stroke-miterlimit:4;stroke-opacity:1"
     d="m -238.38824,-117.18615 c 63.57661,86.745703 63.57661,171.068556 0,257.80847 166.684792,-161.058193 329.265113,-161.058193 495.94412,0 -63.57909,-86.739914 -63.57909,-171.062767 0,-257.80847 -166.679007,161.063982 -329.259328,161.063982 -495.94412,0 z"
     id="path1" />
</svg>
