<?xml version="1.0" encoding="utf-8"?>
<svg xmlns="http://www.w3.org/2000/svg" width="740" height="740" viewBox="-370 -370 740 740" xmlns:bx="https://boxy-svg.com"><defs><bx:guide x="2.192" y="154.351" angle="0"/><bx:guide x="73.416" y="0.579" angle="90"/><bx:export><bx:file format="svg"/></bx:export></defs><rect x="-393.37" y="-394.57" width="788.998" height="798.73" style="stroke: rgb(0, 0, 0); paint-order: stroke; fill-rule: evenodd; fill: rgb(255, 255, 255);"/><path style="fill-opacity: 0; stroke: rgb(247, 178, 57); stroke-width: 24; stroke-linejoin: bevel; stroke-opacity: 1; stroke-miterlimit: 4; fill: rgb(255, 255, 255);" d="M -153.82 302.075 C -48.845 225.138 53.198 225.138 158.166 302.075 C -36.738 100.362 -36.738 -96.384 158.166 -298.09 C 53.198 -221.15 -48.845 -221.15 -153.82 -298.09 C 41.091 -96.384 41.091 100.362 -153.82 302.075 Z" id="Main"/><path style="fill-opacity: 0; stroke: rgb(247, 178, 57); stroke-width: 24; stroke-linejoin: bevel; stroke-opacity: 1; stroke-miterlimit: 4; transform-box: fill-box; transform-origin: 50% 50%; fill: rgb(255, 255, 255);" d="M -153.82 302.075 C -48.845 225.138 53.198 225.138 158.166 302.075 C -36.738 100.362 -36.738 -96.384 158.166 -298.09 C 53.198 -221.15 -48.845 -221.15 -153.82 -298.09 C 41.091 -96.384 41.091 100.362 -153.82 302.075 Z" transform="matrix(0, 1, -1, 0, -0.00002, 0.000045)"/></svg>