<?xml version="1.0" encoding="UTF-8" standalone="no"?>
<svg
   width="766.52454"
   height="766.52454"
   viewBox="-370 -370 766.52454 766.52454"
   version="1.1"
   id="svg1"
   xmlns="http://www.w3.org/2000/svg"
   xmlns:svg="http://www.w3.org/2000/svg"
   xmlns:bx="https://boxy-svg.com">
  <defs
     id="defs1">
    <bx:guide
       x="2.192"
       y="154.351"
       angle="0" />
    <bx:guide
       x="73.416"
       y="0.579"
       angle="90" />
    <bx:export>
      <bx:file
         format="svg" />
    </bx:export>
  </defs>
  <path
     style="fill-opacity:0;stroke:#f7b239;stroke-width:24;stroke-linejoin:bevel;stroke-miterlimit:4;stroke-opacity:1"
     d="m -142.24366,313.65137 c 104.975004,-76.937 207.018004,-76.937 311.986,0 -194.903996,-201.713 -194.903996,-398.458996 0,-600.165 -104.967996,76.94 -207.010996,76.94 -311.986,0 194.911004,201.706004 194.911004,398.452 0,600.165 z"
     id="Main" />
  <path
     style="fill-opacity:0;stroke:#f7b239;stroke-width:24;stroke-linejoin:bevel;stroke-miterlimit:4;stroke-opacity:1"
     d="m -290.49868,-142.24358 c 76.937,104.974999 76.937,207.017999 0,311.986 201.713004,-194.904001 398.459,-194.904001 600.165,0 -76.94,-104.968001 -76.94,-207.011001 0,-311.986 -201.706,194.910999 -398.451996,194.910999 -600.165,0 z"
     id="path1" />
  <rect
     style="fill:#000000;fill-opacity:0;stroke:#f7b239;stroke-width:29.8964;stroke-dasharray:none;stroke-opacity:1"
     id="rect1"
     width="736.62811"
     height="736.62817"
     x="-355.05179"
     y="-355.05179" />
</svg>
